<svg xmlns="http://www.w3.org/2000/svg" viewBox="0 0 512 512"><defs><linearGradient id="bg" x1="0" y1="0" x2="1" y2="1"><stop offset="0" stop-color="#173f78"/><stop offset="1" stop-color="#061c3c"/></linearGradient><linearGradient id="check" x1="0" y1="0" x2="1" y2="1"><stop stop-color="#397cf4"/><stop offset="1" stop-color="#0757d6"/></linearGradient></defs><rect width="512" height="512" rx="112" fill="url(#bg)"/><rect x="117" y="76" width="278" height="330" rx="34" fill="#fff"/><path d="M329 76v70c0 20 16 36 36 36h30" fill="#eef2f7"/><text x="256" y="180" text-anchor="middle" font-family="Arial,sans-serif" font-size="45" font-weight="800" fill="#092855">MEERWERK</text><path d="M166 218h177M166 254h154M166 290h112" stroke="#c5cad2" stroke-width="14" stroke-linecap="round"/><text x="185" y="365" font-family="Arial,sans-serif" font-size="78" font-weight="700" fill="#0b4fa2">€</text><g transform="rotate(-45 330 310)"><rect x="309" y="202" width="42" height="180" rx="19" fill="#0c438d"/><rect x="315" y="210" width="11" height="145" rx="5" fill="#2868bc"/><path d="M309 382h42l-21 35z" fill="#d7dce4"/></g><circle cx="372" cy="369" r="67" fill="url(#check)"/><path d="M339 369l22 23 46-51" fill="none" stroke="#fff" stroke-width="18" stroke-linecap="round" stroke-linejoin="round"/></svg>